<?xml version="1.0" standalone="no"?>
<!DOCTYPE svg PUBLIC "-//W3C//DTD SVG 20010904//EN"
 "http://www.w3.org/TR/2001/REC-SVG-20010904/DTD/svg10.dtd">
<svg version="1.0" xmlns="http://www.w3.org/2000/svg"
 width="32.000000pt" height="32.000000pt" viewBox="0 0 32.000000 32.000000"
 preserveAspectRatio="xMidYMid meet">

<g transform="translate(0.000000,32.000000) scale(0.100000,-0.100000)"
fill="#000000" stroke="none">
<path d="M41 307 c-48 -17 -50 -34 -4 -53 70 -30 212 -3 189 35 -18 28 -126
39 -185 18z"/>
<path d="M0 226 c0 -19 23 -32 72 -41 27 -5 43 -2 64 12 l28 18 -59 6 c-33 3
-70 9 -82 13 -17 5 -23 3 -23 -8z"/>
<path d="M163 190 c-39 -24 -60 -81 -44 -122 15 -40 68 -70 111 -64 38 6 76
42 86 83 10 38 -20 91 -61 109 -45 18 -54 18 -92 -6z m77 -46 c0 -7 -6 -11
-14 -8 -25 10 -26 -13 -1 -24 29 -14 32 -42 7 -65 -14 -13 -21 -14 -30 -5 -18
18 -15 28 8 28 27 0 25 13 -2 25 -29 13 -34 41 -12 66 13 14 20 16 31 8 7 -6
13 -18 13 -25z"/>
<path d="M0 168 c0 -21 63 -53 86 -44 28 11 12 31 -36 47 -48 15 -50 15 -50
-3z"/>
<path d="M2 106 c2 -15 16 -25 45 -36 23 -8 45 -12 48 -8 14 13 -10 37 -51 51
-44 14 -45 14 -42 -7z"/>
<path d="M0 49 c0 -24 29 -39 91 -46 50 -6 51 -6 38 15 -8 12 -23 22 -34 22
-11 1 -37 7 -57 14 -35 13 -38 12 -38 -5z"/>
</g>
</svg>
