<?xml version="1.0" encoding="UTF-8"?>
<svg xmlns="http://www.w3.org/2000/svg" xmlns:xlink="http://www.w3.org/1999/xlink" width="24px" height="24px" viewBox="0 0 24 24" version="1.1">
<g id="surface1">
<path style=" stroke:none;fill-rule:nonzero;fill:rgb(0%,0%,0%);fill-opacity:1;" d="M 16 0.300781 C 16.707031 0.542969 17.347656 0.941406 17.878906 1.464844 L 19.535156 3.121094 C 20.058594 3.652344 20.457031 4.292969 20.699219 5 L 16 5 Z M 21 7 L 21 19 C 20.996094 21.761719 18.761719 23.996094 16 24 L 8 24 C 5.238281 23.996094 3.003906 21.761719 3 19 L 3 5 C 3.003906 2.238281 5.238281 0.00390625 8 0 L 14 0 L 14 5 C 14 6.105469 14.894531 7 16 7 Z M 16.808594 17.414062 C 16.652344 17.199219 16.417969 17.054688 16.152344 17.011719 C 15.890625 16.96875 15.621094 17.035156 15.40625 17.191406 C 14.734375 17.660156 13.953125 17.9375 13.136719 18 C 12.816406 17.992188 12.507812 17.867188 12.269531 17.65625 C 11.75 17.242188 11.105469 17.011719 10.4375 17 C 9.328125 17.105469 8.273438 17.523438 7.394531 18.207031 C 7.09375 18.417969 6.9375 18.773438 6.980469 19.136719 C 7.023438 19.5 7.261719 19.8125 7.597656 19.949219 C 7.9375 20.085938 8.324219 20.023438 8.605469 19.792969 C 9.140625 19.375 9.769531 19.101562 10.4375 19 C 10.683594 19 10.808594 19.078125 11.140625 19.300781 C 11.707031 19.75 12.414062 19.996094 13.140625 20 C 14.382812 19.941406 15.582031 19.527344 16.59375 18.808594 C 17.039062 18.480469 17.132812 17.855469 16.808594 17.414062 Z M 17 14 C 17 13.449219 16.550781 13 16 13 L 8 13 C 7.449219 13 7 13.449219 7 14 C 7 14.550781 7.449219 15 8 15 L 16 15 C 16.550781 15 17 14.550781 17 14 Z M 17 10 C 17 9.449219 16.550781 9 16 9 L 8 9 C 7.449219 9 7 9.449219 7 10 C 7 10.550781 7.449219 11 8 11 L 16 11 C 16.550781 11 17 10.550781 17 10 Z M 17 10 "/>
</g>
</svg>
