<?xml version="1.0" encoding="UTF-8"?>
<svg xmlns="http://www.w3.org/2000/svg" xmlns:xlink="http://www.w3.org/1999/xlink" width="24px" height="24px" viewBox="0 0 24 24" version="1.1">
<g id="surface1">
<path style=" stroke:none;fill-rule:nonzero;fill:rgb(0%,0%,0%);fill-opacity:1;" d="M 5.25 6.75 L 5.25 12 L 3 12 C 2.585938 12 2.25 12.335938 2.25 12.75 L 2.25 23.25 C 2.25 23.664062 2.585938 24 3 24 L 21 24 C 21.414062 24 21.75 23.664062 21.75 23.25 L 21.75 12.75 C 21.75 12.335938 21.414062 12 21 12 L 18.75 12 L 18.75 6.75 C 18.75 3.027344 15.722656 0 12 0 C 8.277344 0 5.25 3.027344 5.25 6.75 Z M 20.25 22.5 L 3.75 22.5 L 3.75 13.5 L 20.25 13.5 Z M 12 1.5 C 14.894531 1.5 17.25 3.855469 17.25 6.75 L 17.25 12 L 6.75 12 L 6.75 6.75 C 6.75 3.855469 9.105469 1.5 12 1.5 Z M 12 1.5 "/>
<path style=" stroke:none;fill-rule:nonzero;fill:rgb(0%,0%,0%);fill-opacity:1;" d="M 12 15 C 10.757812 15 9.75 16.007812 9.75 17.25 C 9.75 18.226562 10.378906 19.058594 11.25 19.367188 L 11.25 20.25 C 11.25 20.664062 11.585938 21 12 21 C 12.414062 21 12.75 20.664062 12.75 20.25 L 12.75 19.367188 C 13.621094 19.058594 14.25 18.226562 14.25 17.25 C 14.25 16.007812 13.242188 15 12 15 Z M 12 18 C 11.585938 18 11.25 17.664062 11.25 17.25 C 11.25 16.835938 11.585938 16.5 12 16.5 C 12.414062 16.5 12.75 16.835938 12.75 17.25 C 12.75 17.664062 12.414062 18 12 18 Z M 12 18 "/>
</g>
</svg>
